<svg width="24" height="24" fill="none" xmlns="http://www.w3.org/2000/svg"><path fill-rule="evenodd" clip-rule="evenodd" d="M12.022.09C5.407.09.044 5.544.044 12.272c0 5.383 3.432 9.95 8.19 11.56.6.113.82-.264.82-.586 0-.29-.012-1.25-.017-2.268-3.332.737-4.035-1.437-4.035-1.437-.545-1.409-1.33-1.783-1.33-1.783-1.087-.756.082-.74.082-.74 1.202.085 1.836 1.255 1.836 1.255 1.068 1.862 2.802 1.324 3.485 1.013.108-.788.418-1.325.76-1.63-2.66-.307-5.456-1.352-5.456-6.02 0-1.33.468-2.417 1.234-3.27-.125-.307-.535-1.546.116-3.224 0 0 1.006-.327 3.295 1.249a11.3 11.3 0 012.998-.41c1.018.005 2.043.14 3 .41 2.286-1.576 3.29-1.249 3.29-1.249.653 1.678.243 2.917.118 3.224.768.853 1.233 1.94 1.233 3.27 0 4.68-2.802 5.71-5.47 6.01.43.379.813 1.12.813 2.257 0 1.63-.014 2.942-.014 3.343 0 .324.216.704.823.585 4.757-1.613 8.184-6.178 8.184-11.559C24 5.544 18.637.09 12.022.09z" fill="#eaebef"/><path fill-rule="evenodd" clip-rule="evenodd" d="M4.58 17.581c-.026.06-.12.079-.205.037-.087-.04-.136-.122-.107-.183.025-.062.12-.08.206-.038.087.04.137.123.106.184zM5.066 18.131c-.058.054-.17.03-.245-.056-.078-.085-.093-.198-.035-.253.059-.054.167-.029.246.056.078.086.093.199.034.253zM5.538 18.833c-.074.052-.194.003-.268-.105-.073-.108-.073-.238.002-.29.074-.052.192-.006.268.102.073.11.073.24-.002.293zM6.185 19.511c-.066.074-.206.054-.308-.047-.105-.098-.134-.237-.068-.31.066-.075.207-.054.31.046.104.098.136.238.066.311zM7.077 19.904c-.029.096-.163.14-.299.099-.135-.042-.224-.154-.197-.25.028-.096.164-.141.3-.098.136.041.225.152.196.25zM8.058 19.978c.003.1-.112.183-.254.185-.144.003-.26-.078-.261-.177 0-.101.112-.184.256-.186.142-.003.259.078.259.178zM8.97 19.82c.017.098-.082.198-.224.225-.139.026-.267-.035-.285-.132-.017-.1.084-.2.222-.227.142-.025.269.034.287.134z" fill="#eaebef"/></svg>